# xmcd
#
# Track frame offsets:
#	150
#	12247
#	23252
#	36775
#	48020
#	59097
#	70512
#	83920
#	95430
#	107157
#	121317
#	135130
#	147837
#	159687
#	170672
#	186300
#	199132
#	211590
#	228285
#	243397
#	257592
#
# Disc length: 3661 seconds
#
# Revision: 3
# Processed by: cddbd v1.5.1PL0 Copyright (c) Steve Scherf et al.
# Submitted via: EasyCDDAExtractor 6.0.0.1
#
DISCID=110e4b15
DTITLE=Mate Miso Kovac - Rane godine 1964-1969
DYEAR=1999
DGENRE=Pop
TTITLE0=Ne mogu prestati da te volim
TTITLE1=Ti si bila dio svijeta
TTITLE2=Kad places i kad se smijes
TTITLE3=Odrasli smo
TTITLE4=Ja odlazim
TTITLE5=Pomogni mi
TTITLE6=Vrijeme plakanja
TTITLE7=Ja nisam taj
TTITLE8=Ne reci,kuda ides
TTITLE9=Kada je umro pjesnik
TTITLE10=Daj da odem
TTITLE11=San Francisco
TTITLE12=Ne tuguj,ljubavi
TTITLE13=Htjela ti to ili ne
TTITLE14=Trazim
TTITLE15=Da je duzi moj dan
TTITLE16=Ista prica
TTITLE17=Budi takva kakvu te zelim
TTITLE18=Vise se neces vratiti
TTITLE19=Reci,zbogom
TTITLE20=Cemu da zivim
EXTD=
EXTT0=
EXTT1=
EXTT2=
EXTT3=
EXTT4=
EXTT5=
EXTT6=
EXTT7=
EXTT8=
EXTT9=
EXTT10=
EXTT11=
EXTT12=
EXTT13=
EXTT14=
EXTT15=
EXTT16=
EXTT17=
EXTT18=
EXTT19=
EXTT20=
PLAYORDER=
